<svg width="100%" height="100%" id="svg" viewBox="0 0 1440 690" xmlns="http://www.w3.org/2000/svg" class="transition duration-300 ease-in-out delay-150"><path d="M 0,700 L 0,356 C 69.41626794258374,346.6985645933014 138.8325358851675,337.39712918660285 237,345 C 335.1674641148325,352.60287081339715 462.0861244019138,377.11004784689 560,341 C 657.9138755980862,304.88995215311 726.8229665071771,208.1626794258373 815,174 C 903.1770334928229,139.8373205741627 1010.6220095693782,168.23923444976077 1118,159 C 1225.3779904306218,149.76076555023923 1332.688995215311,102.88038277511961 1440,56 L 1440,700 L 0,700 Z" stroke="none" stroke-width="0" fill="#172538" fill-opacity="0.4" class="transition-all duration-300 ease-in-out delay-150 path-0"></path><path d="M 0,700 L 0,531 C 81.25358851674642,550.1483253588517 162.50717703349284,569.2966507177033 253,546 C 343.49282296650716,522.7033492822967 443.22488038277504,456.9617224880382 549,434 C 654.775119617225,411.0382775119618 766.5933014354066,430.8564593301436 879,427 C 991.4066985645934,423.1435406698564 1104.4019138755982,395.6124401913876 1198,359 C 1291.5980861244018,322.3875598086124 1365.7990430622008,276.6937799043062 1440,231 L 1440,700 L 0,700 Z" stroke="none" stroke-width="0" fill="#172538" fill-opacity="0.53" class="transition-all duration-300 ease-in-out delay-150 path-1"></path><path d="M 0,700 L 0,706 C 85.53110047846889,677.5023923444976 171.06220095693777,649.0047846889953 262,644 C 352.9377990430622,638.9952153110047 449.28229665071774,657.4832535885167 551,651 C 652.7177033492823,644.5167464114833 759.8086124401914,613.0622009569378 852,569 C 944.1913875598086,524.9377990430622 1021.4832535885168,468.26794258373207 1117,439 C 1212.5167464114832,409.73205741626793 1326.2583732057415,407.86602870813397 1440,406 L 1440,700 L 0,700 Z" stroke="none" stroke-width="0" fill="#172538" fill-opacity="1" class="transition-all duration-300 ease-in-out delay-150 path-2"></path></svg>